<svg width="48" height="48" viewBox="0 0 48 48" fill="none" xmlns="http://www.w3.org/2000/svg">
<rect width="48" height="48" fill="#FFF7DA" rx="10"/>
<path d="M12.8091 23.5198C12.8091 17.5879 17.6111 12.7858 23.5431 12.7858C29.4751 12.7858 34.3053 17.5878 34.3053 23.5198C34.3053 24.9887 33.9946 26.4574 33.4297 27.7851H35.8024C36.2826 26.4293 36.5368 24.9604 36.5368 23.5198C36.4805 16.4015 30.6614 10.5825 23.5148 10.5825C16.3965 10.5825 10.6058 16.4015 10.6058 23.5198C10.6058 24.9604 10.86 26.4293 11.3402 27.7851H13.7129C13.0917 26.4575 12.8091 24.9887 12.8091 23.5198H12.8091Z" fill="#AD95F0"/>
<path d="M12.8091 23.5198C12.8091 17.5879 17.6111 12.7858 23.5431 12.7858C29.4751 12.7858 34.3053 17.5878 34.3053 23.5198C34.3053 24.9887 33.9946 26.4574 33.4297 27.7851H35.8024C36.2826 26.4293 36.5368 24.9604 36.5368 23.5198C36.4805 16.4015 30.6614 10.5825 23.5148 10.5825C16.3965 10.5825 10.6058 16.4015 10.6058 23.5198C10.6058 24.9604 10.86 26.4293 11.3402 27.7851H13.7129C13.0917 26.4575 12.8091 24.9887 12.8091 23.5198H12.8091Z" fill="url(#paint0_linear_1412_3488)" fill-opacity="0.2"/>
<path d="M21.6788 25.4971C22.3568 26.1751 23.3454 26.4293 24.2776 26.2033L31.8761 24.2542C32.7236 24.0282 32.7236 22.8136 31.8479 22.6158L24.1929 20.8362C23.2607 20.6102 22.2722 20.8927 21.5941 21.5989C20.5491 22.7006 20.5772 24.4237 21.6789 25.4971H21.6788Z" fill="#AD95F0"/>
<path d="M24.7295 15.3563C24.7295 16.0115 24.1983 16.5427 23.5431 16.5427C22.8878 16.5427 22.3568 16.0115 22.3568 15.3563C22.3568 14.701 22.8877 14.1699 23.5431 14.1699C24.1983 14.1699 24.7295 14.7009 24.7295 15.3563Z" fill="#C5B0FF"/>
<path d="M18.6397 16.8832C19.1029 17.3464 19.1031 18.0977 18.6399 18.561C18.1767 19.0244 17.4254 19.0246 16.9621 18.5614C16.4987 18.0981 16.4985 17.3468 16.9617 16.8836C17.4251 16.4202 18.1762 16.42 18.6397 16.8832" fill="#C5B0FF"/>
<path d="M16.5943 23.4915C16.5943 24.1467 16.0631 24.6779 15.4079 24.6779C14.7528 24.6779 14.2215 24.1467 14.2215 23.4915C14.2215 22.8362 14.7527 22.305 15.4079 22.305C16.063 22.305 16.5943 22.8362 16.5943 23.4915Z" fill="#C5B0FF"/>
<path d="M30.1389 16.8887C30.6021 17.3522 30.6021 18.1033 30.1389 18.5665C29.6754 19.03 28.9243 19.03 28.4611 18.5665C27.9976 18.1033 27.9976 17.3522 28.4611 16.8887C28.9243 16.4255 29.6754 16.4255 30.1389 16.8887Z" fill="#C5B0FF"/>
<path d="M36.9324 33.4063L34.4465 29.8754C34.39 29.7907 34.3053 29.7342 34.1924 29.7342H32.2716C32.0175 29.7342 31.8762 30.0167 32.0175 30.2143L34.362 33.5758L32.0175 36.9373C31.8762 37.1351 32.0175 37.4175 32.2716 37.4175H34.2208C34.3337 37.4175 34.4186 37.3609 34.4749 37.2762L36.9608 33.7453C37.0171 33.6324 37.0171 33.4911 36.9324 33.4064L36.9324 33.4063Z" fill="#57FAAC"/>
<path d="M36.9324 33.4063L34.4465 29.8754C34.39 29.7907 34.3053 29.7342 34.1924 29.7342H32.2716C32.0175 29.7342 31.8762 30.0167 32.0175 30.2143L34.362 33.5758L32.0175 36.9373C31.8762 37.1351 32.0175 37.4175 32.2716 37.4175H34.2208C34.3337 37.4175 34.4186 37.3609 34.4749 37.2762L36.9608 33.7453C37.0171 33.6324 37.0171 33.4911 36.9324 33.4064L36.9324 33.4063Z" fill="url(#paint1_linear_1412_3488)" fill-opacity="0.2"/>
<path d="M31.9326 33.4063L29.4467 29.8754C29.3902 29.7907 29.3055 29.7342 29.1926 29.7342H27.2435C26.9893 29.7342 26.848 30.0167 26.9893 30.2143L29.3338 33.5758L26.9893 36.9373C26.848 37.1351 26.9893 37.4175 27.2435 37.4175H29.1926C29.3055 37.4175 29.3904 37.3609 29.4467 37.2762L31.9326 33.7453C32.0173 33.6324 32.0173 33.4911 31.9326 33.4064V33.4063Z" fill="#57FAAC"/>
<path d="M31.9326 33.4063L29.4467 29.8754C29.3902 29.7907 29.3055 29.7342 29.1926 29.7342H27.2435C26.9893 29.7342 26.848 30.0167 26.9893 30.2143L29.3338 33.5758L26.9893 36.9373C26.848 37.1351 26.9893 37.4175 27.2435 37.4175H29.1926C29.3055 37.4175 29.3904 37.3609 29.4467 37.2762L31.9326 33.7453C32.0173 33.6324 32.0173 33.4911 31.9326 33.4064V33.4063Z" fill="url(#paint2_linear_1412_3488)" fill-opacity="0.2"/>
<path d="M26.9328 33.4063L24.447 29.8754C24.3904 29.7907 24.3057 29.7342 24.1928 29.7342H22.2437C21.9895 29.7342 21.8482 30.0167 21.9895 30.2143L24.3622 33.5758L22.0177 36.9373C21.8764 37.1351 22.0177 37.4175 22.2719 37.4175H24.221C24.3339 37.4175 24.4188 37.3609 24.4752 37.2762L26.961 33.7453C26.9894 33.6324 26.9894 33.4911 26.9328 33.4064L26.9328 33.4063Z" fill="#57FAAC"/>
<path d="M26.9328 33.4063L24.447 29.8754C24.3904 29.7907 24.3057 29.7342 24.1928 29.7342H22.2437C21.9895 29.7342 21.8482 30.0167 21.9895 30.2143L24.3622 33.5758L22.0177 36.9373C21.8764 37.1351 22.0177 37.4175 22.2719 37.4175H24.221C24.3339 37.4175 24.4188 37.3609 24.4752 37.2762L26.961 33.7453C26.9894 33.6324 26.9894 33.4911 26.9328 33.4064L26.9328 33.4063Z" fill="url(#paint3_linear_1412_3488)" fill-opacity="0.2"/>
<path d="M21.933 33.4063L19.4472 29.8754C19.3907 29.7907 19.306 29.7342 19.1931 29.7342H17.2439C16.9898 29.7342 16.8485 30.0167 16.9898 30.2143L19.3343 33.5758L16.9898 36.9373C16.8485 37.1351 16.9898 37.4175 17.2439 37.4175H19.1931C19.306 37.4175 19.3909 37.3609 19.4472 37.2762L21.933 33.7453C21.9896 33.6324 21.9896 33.4911 21.933 33.4064V33.4063Z" fill="#57FAAC"/>
<path d="M21.933 33.4063L19.4472 29.8754C19.3907 29.7907 19.306 29.7342 19.1931 29.7342H17.2439C16.9898 29.7342 16.8485 30.0167 16.9898 30.2143L19.3343 33.5758L16.9898 36.9373C16.8485 37.1351 16.9898 37.4175 17.2439 37.4175H19.1931C19.306 37.4175 19.3909 37.3609 19.4472 37.2762L21.933 33.7453C21.9896 33.6324 21.9896 33.4911 21.933 33.4064V33.4063Z" fill="url(#paint4_linear_1412_3488)" fill-opacity="0.2"/>
<path d="M16.905 33.4063L14.4192 29.8754C14.3626 29.7907 14.2779 29.7342 14.165 29.7342H12.2443C11.9901 29.7342 11.8488 30.0167 11.9901 30.2143L14.3346 33.5758L11.9901 36.9373C11.8488 37.1351 11.9901 37.4175 12.2443 37.4175H14.1934C14.3063 37.4175 14.3912 37.3609 14.4476 37.2762L16.9334 33.7453C16.9897 33.6324 16.9897 33.4911 16.905 33.4064L16.905 33.4063Z" fill="#57FAAC"/>
<path d="M16.905 33.4063L14.4192 29.8754C14.3626 29.7907 14.2779 29.7342 14.165 29.7342H12.2443C11.9901 29.7342 11.8488 30.0167 11.9901 30.2143L14.3346 33.5758L11.9901 36.9373C11.8488 37.1351 11.9901 37.4175 12.2443 37.4175H14.1934C14.3063 37.4175 14.3912 37.3609 14.4476 37.2762L16.9334 33.7453C16.9897 33.6324 16.9897 33.4911 16.905 33.4064L16.905 33.4063Z" fill="url(#paint5_linear_1412_3488)" fill-opacity="0.2"/>
<defs>
<linearGradient id="paint0_linear_1412_3488" x1="23.5713" y1="10.5825" x2="23.5713" y2="27.7851" gradientUnits="userSpaceOnUse">
<stop/>
<stop offset="1" stop-opacity="0"/>
</linearGradient>
<linearGradient id="paint1_linear_1412_3488" x1="40.2162" y1="29.5" x2="31.2712" y2="29.5" gradientUnits="userSpaceOnUse">
<stop/>
<stop offset="1" stop-opacity="0"/>
</linearGradient>
<linearGradient id="paint2_linear_1412_3488" x1="35.2278" y1="29.5" x2="26.2397" y2="29.5" gradientUnits="userSpaceOnUse">
<stop/>
<stop offset="1" stop-opacity="0"/>
</linearGradient>
<linearGradient id="paint3_linear_1412_3488" x1="30.2007" y1="29.5" x2="21.2422" y2="29.5" gradientUnits="userSpaceOnUse">
<stop/>
<stop offset="1" stop-opacity="0"/>
</linearGradient>
<linearGradient id="paint4_linear_1412_3488" x1="25.1937" y1="29.5" x2="16.243" y2="29.5" gradientUnits="userSpaceOnUse">
<stop/>
<stop offset="1" stop-opacity="0"/>
</linearGradient>
<linearGradient id="paint5_linear_1412_3488" x1="20.1888" y1="29.5" x2="11.2438" y2="29.5" gradientUnits="userSpaceOnUse">
<stop/>
<stop offset="1" stop-opacity="0"/>
</linearGradient>
</defs>
</svg>
