<svg width="48" height="48" viewBox="0 0 48 48" fill="none" xmlns="http://www.w3.org/2000/svg">
<rect width="48" height="48" fill="#FFF7DA" rx="10"/>
<path d="M32.3679 20.1788H30.7845V15.9669C30.7845 13.4777 29.4567 11.1779 27.3011 9.93343C25.1453 8.68886 22.4896 8.68886 20.334 9.93343C18.1784 11.178 16.8505 13.4778 16.8505 15.9669H19.3841C19.3841 14.383 20.229 12.9193 21.6008 12.1273C22.9726 11.3354 24.6626 11.3354 26.0343 12.1273C27.4061 12.9193 28.2511 14.383 28.2511 15.9669V20.1788H15.2669C14.9309 20.1788 14.6086 20.3122 14.3712 20.5499C14.1337 20.7874 14 21.1097 14 21.4457V31.4213C13.9963 32.4664 14.2967 33.4901 14.8646 34.3673C15.4326 35.2445 16.2435 35.9375 17.1987 36.3616L21.6322 38.325V38.3252C23.0234 38.9431 24.6113 38.9431 26.0025 38.3252L30.436 36.3618V36.3616C31.3912 35.9375 32.2021 35.2445 32.77 34.3673C33.338 33.4901 33.6384 32.4664 33.6346 31.4213V21.4457C33.6346 21.1097 33.501 20.7874 33.2635 20.5499C33.0261 20.3122 32.7038 20.1788 32.3678 20.1788H32.3679ZM31.1013 31.4212C31.1011 31.9697 30.9425 32.5064 30.6447 32.9671C30.3471 33.4276 29.9228 33.7926 29.4229 34.0181L24.9894 35.9815H24.9892C24.2533 36.308 23.4135 36.308 22.6774 35.9815L18.2439 34.0181C17.7381 33.7972 17.3071 33.4343 17.0035 32.9732C16.6998 32.5124 16.5368 31.9732 16.5337 31.4212V22.7123H31.1013L31.1013 31.4212Z" fill="#AD95F0"/>
<path d="M32.3679 20.1788H30.7845V15.9669C30.7845 13.4777 29.4567 11.1779 27.3011 9.93343C25.1453 8.68886 22.4896 8.68886 20.334 9.93343C18.1784 11.178 16.8505 13.4778 16.8505 15.9669H19.3841C19.3841 14.383 20.229 12.9193 21.6008 12.1273C22.9726 11.3354 24.6626 11.3354 26.0343 12.1273C27.4061 12.9193 28.2511 14.383 28.2511 15.9669V20.1788H15.2669C14.9309 20.1788 14.6086 20.3122 14.3712 20.5499C14.1337 20.7874 14 21.1097 14 21.4457V31.4213C13.9963 32.4664 14.2967 33.4901 14.8646 34.3673C15.4326 35.2445 16.2435 35.9375 17.1987 36.3616L21.6322 38.325V38.3252C23.0234 38.9431 24.6113 38.9431 26.0025 38.3252L30.436 36.3618V36.3616C31.3912 35.9375 32.2021 35.2445 32.77 34.3673C33.338 33.4901 33.6384 32.4664 33.6346 31.4213V21.4457C33.6346 21.1097 33.501 20.7874 33.2635 20.5499C33.0261 20.3122 32.7038 20.1788 32.3678 20.1788H32.3679ZM31.1013 31.4212C31.1011 31.9697 30.9425 32.5064 30.6447 32.9671C30.3471 33.4276 29.9228 33.7926 29.4229 34.0181L24.9894 35.9815H24.9892C24.2533 36.308 23.4135 36.308 22.6774 35.9815L18.2439 34.0181C17.7381 33.7972 17.3071 33.4343 17.0035 32.9732C16.6998 32.5124 16.5368 31.9732 16.5337 31.4212V22.7123H31.1013L31.1013 31.4212Z" fill="url(#paint0_linear_1412_3479)" fill-opacity="0.2"/>
<path d="M22.5507 26.5125H25.0842V31.5796H22.5507V26.5125Z" fill="#57FAAC"/>
<defs>
<linearGradient id="paint0_linear_1412_3479" x1="23.8173" y1="9" x2="23.8173" y2="38.7887" gradientUnits="userSpaceOnUse">
<stop/>
<stop offset="1" stop-opacity="0"/>
</linearGradient>
</defs>
</svg>
