<svg width="13" height="8" viewBox="0 0 13 8" fill="none" xmlns="http://www.w3.org/2000/svg">
<path d="M12.4124 4.00001C12.4124 5.20146 9.63345 8.00001 6.20618 8.00001C2.77855 8.00001 0 5.5451 0 4.00001C0 2.79492 12.4124 2.79492 12.4124 4.00001Z" fill="#E1E8ED"/>
<path d="M12.4124 4H0C0 2.79527 2.77891 0 6.20618 0C9.63345 0 12.4124 2.79491 12.4124 4Z" fill="#292F33"/>
<path d="M11.9606 4.00002C11.9606 5.05602 9.38353 7.51529 6.20572 7.51529C3.02753 7.51529 0.451172 5.35711 0.451172 4.00002C0.451172 2.94111 3.02753 0.485107 6.20572 0.485107C9.38353 0.484744 11.9606 2.94111 11.9606 4.00002Z" fill="#F5F8FA"/>
<path d="M6.20894 7.07559C7.90756 7.07559 9.28457 5.69858 9.28457 3.99995C9.28457 2.30133 7.90756 0.924316 6.20894 0.924316C4.51031 0.924316 3.1333 2.30133 3.1333 3.99995C3.1333 5.69858 4.51031 7.07559 6.20894 7.07559Z" fill="#8B5E3C"/>
<path d="M6.20907 5.71196C7.15458 5.71196 7.92107 4.94548 7.92107 3.99996C7.92107 3.05445 7.15458 2.28796 6.20907 2.28796C5.26356 2.28796 4.49707 3.05445 4.49707 3.99996C4.49707 4.94548 5.26356 5.71196 6.20907 5.71196Z" fill="#292F33"/>
<path d="M5.11204 3.63631C5.5137 3.63631 5.83931 3.3107 5.83931 2.90904C5.83931 2.50737 5.5137 2.18176 5.11204 2.18176C4.71038 2.18176 4.38477 2.50737 4.38477 2.90904C4.38477 3.3107 4.71038 3.63631 5.11204 3.63631Z" fill="#F5F8FA"/>
</svg>
