<svg width="65" height="72" viewBox="0 0 65 72" fill="none" xmlns="http://www.w3.org/2000/svg">
<g filter="url(#filter0_d_778_591)">
<circle cx="32.2667" cy="35.7333" r="28.2667" fill="#FFF7DA"/>
</g>
<path fill-rule="evenodd" clip-rule="evenodd" d="M40.1727 0.821486C38.4946 2.53457 37.9663 4.49199 38.5414 6.86495C38.5901 7.06544 38.9492 7.95411 39.3396 8.83963C40.0625 10.4799 40.3436 11.3698 40.4811 12.4541C40.5234 12.7883 40.587 13.2158 40.6225 13.4042C40.6858 13.7399 40.6921 13.7423 40.9375 13.5257C41.7549 12.8039 42.5955 10.8797 42.8643 9.11435C43.0567 7.85108 42.9282 6.8974 42.3074 4.9859C41.598 2.80114 41.4076 2.02218 41.3146 0.921483C41.2703 0.399261 41.1804 0 41.1069 0C41.0356 0 40.6152 0.369735 40.1727 0.821486ZM35.4096 2.09545C32.6139 3.52919 30.2955 5.23486 27.9472 7.58547C23.9621 11.5744 22.3238 15.0502 21.9873 20.2304C21.8813 21.8608 22.2097 25.2071 22.6194 26.67C22.6568 26.8037 22.4553 26.5577 22.1715 26.1233C21.8879 25.6889 20.9864 24.6774 20.1683 23.8755C18.8862 22.6185 18.6428 22.3168 18.4035 21.6884C18.0847 20.8506 17.9539 19.2889 18.1364 18.4989C18.2021 18.2148 18.2206 17.9851 18.1775 17.9882C17.9537 18.0048 16.0051 20.7047 14.9503 22.4601C12.2327 26.9827 10.7394 31.4448 10.4292 35.97C10.1689 39.7669 11.6921 44.8515 14.2134 48.6014C17.9229 54.119 24.0036 57.5928 30.8021 58.0781C35.9025 58.4421 41.0462 56.996 45.1886 54.0335C50.268 50.4007 53.4183 44.9281 54.0511 38.6381C54.4908 34.2678 53.1598 28.8378 50.4324 23.8755C49.0638 21.3852 46.1941 17.4134 44.858 16.16L44.4047 15.7347L44.4765 16.3422C45.0398 21.0987 44.7717 23.9949 43.5169 26.7076C43.2848 27.2093 43.065 27.5899 43.0285 27.5535C42.9919 27.517 43.0267 26.8932 43.1057 26.1673C43.2927 24.4509 43.1849 22.0976 42.8625 20.8577C42.4233 19.169 41.5077 17.5774 39.6407 15.2577C36.6455 11.5358 36.0767 10.3611 35.9524 7.64003C35.8762 5.97567 36.1103 4.32346 36.6705 2.57089C36.87 1.94673 37.0074 1.41029 36.9759 1.37882C36.9444 1.34735 36.2396 1.66982 35.4096 2.09545ZM23.4551 3.06031C22.6477 5.38565 22.3405 5.86449 20.478 7.70248C19.3893 8.77694 18.7956 9.46392 18.5878 9.88954C18.0218 11.0491 17.9954 12.8494 18.524 14.251C18.8019 14.988 19.7056 16.4212 19.937 16.4921C20.0204 16.5176 20.1017 16.2416 20.1503 15.7674C20.3378 13.9401 20.9226 12.5657 22.2325 10.8746C23.8604 8.77268 24.4623 7.15182 24.3151 5.26621C24.2198 4.04583 23.6344 2.54416 23.4551 3.06031Z" fill="#AD95F0"/>
<path fill-rule="evenodd" clip-rule="evenodd" d="M40.1727 0.821486C38.4946 2.53457 37.9663 4.49199 38.5414 6.86495C38.5901 7.06544 38.9492 7.95411 39.3396 8.83963C40.0625 10.4799 40.3436 11.3698 40.4811 12.4541C40.5234 12.7883 40.587 13.2158 40.6225 13.4042C40.6858 13.7399 40.6921 13.7423 40.9375 13.5257C41.7549 12.8039 42.5955 10.8797 42.8643 9.11435C43.0567 7.85108 42.9282 6.8974 42.3074 4.9859C41.598 2.80114 41.4076 2.02218 41.3146 0.921483C41.2703 0.399261 41.1804 0 41.1069 0C41.0356 0 40.6152 0.369735 40.1727 0.821486ZM35.4096 2.09545C32.6139 3.52919 30.2955 5.23486 27.9472 7.58547C23.9621 11.5744 22.3238 15.0502 21.9873 20.2304C21.8813 21.8608 22.2097 25.2071 22.6194 26.67C22.6568 26.8037 22.4553 26.5577 22.1715 26.1233C21.8879 25.6889 20.9864 24.6774 20.1683 23.8755C18.8862 22.6185 18.6428 22.3168 18.4035 21.6884C18.0847 20.8506 17.9539 19.2889 18.1364 18.4989C18.2021 18.2148 18.2206 17.9851 18.1775 17.9882C17.9537 18.0048 16.0051 20.7047 14.9503 22.4601C12.2327 26.9827 10.7394 31.4448 10.4292 35.97C10.1689 39.7669 11.6921 44.8515 14.2134 48.6014C17.9229 54.119 24.0036 57.5928 30.8021 58.0781C35.9025 58.4421 41.0462 56.996 45.1886 54.0335C50.268 50.4007 53.4183 44.9281 54.0511 38.6381C54.4908 34.2678 53.1598 28.8378 50.4324 23.8755C49.0638 21.3852 46.1941 17.4134 44.858 16.16L44.4047 15.7347L44.4765 16.3422C45.0398 21.0987 44.7717 23.9949 43.5169 26.7076C43.2848 27.2093 43.065 27.5899 43.0285 27.5535C42.9919 27.517 43.0267 26.8932 43.1057 26.1673C43.2927 24.4509 43.1849 22.0976 42.8625 20.8577C42.4233 19.169 41.5077 17.5774 39.6407 15.2577C36.6455 11.5358 36.0767 10.3611 35.9524 7.64003C35.8762 5.97567 36.1103 4.32346 36.6705 2.57089C36.87 1.94673 37.0074 1.41029 36.9759 1.37882C36.9444 1.34735 36.2396 1.66982 35.4096 2.09545ZM23.4551 3.06031C22.6477 5.38565 22.3405 5.86449 20.478 7.70248C19.3893 8.77694 18.7956 9.46392 18.5878 9.88954C18.0218 11.0491 17.9954 12.8494 18.524 14.251C18.8019 14.988 19.7056 16.4212 19.937 16.4921C20.0204 16.5176 20.1017 16.2416 20.1503 15.7674C20.3378 13.9401 20.9226 12.5657 22.2325 10.8746C23.8604 8.77268 24.4623 7.15182 24.3151 5.26621C24.2198 4.04583 23.6344 2.54416 23.4551 3.06031Z" fill="url(#paint0_linear_778_591)" fill-opacity="0.2"/>
<path fill-rule="evenodd" clip-rule="evenodd" d="M34.1304 28.5391C34.6285 30.2678 35.4084 31.7337 36.5092 33.0101C36.8674 33.4253 38.0036 34.5646 39.0343 35.542C43.3355 39.6208 44.9564 42.6785 44.9461 46.6936C44.94 49.0073 44.3619 50.7043 42.9298 52.6124C39.7582 56.8378 34.1963 58.5962 28.9206 57.0412C27.1726 56.5259 25.7124 55.7193 24.2992 54.4883C21.9486 52.4409 20.8934 50.526 20.3916 47.3971C20.1791 46.0723 20.118 43.3217 20.2954 43.0743C20.3612 42.9823 20.4904 43.1517 20.6411 43.5277C20.97 44.3486 22.0503 45.7261 22.7889 46.2664C23.1246 46.5119 23.7099 46.8525 24.0898 47.0232L24.7805 47.3334L24.4098 46.9026C23.8362 46.2361 23.116 44.8832 22.7687 43.82C22.3287 42.4732 22.3315 39.5621 22.7742 38.1215C23.7081 35.0822 26.6189 31.3436 31.231 27.2598L33.7079 25.0667L33.8051 26.4069C33.8586 27.1441 34.0049 28.1036 34.1304 28.5391Z" fill="#57FAAC"/>
<path fill-rule="evenodd" clip-rule="evenodd" d="M34.1304 28.5391C34.6285 30.2678 35.4084 31.7337 36.5092 33.0101C36.8674 33.4253 38.0036 34.5646 39.0343 35.542C43.3355 39.6208 44.9564 42.6785 44.9461 46.6936C44.94 49.0073 44.3619 50.7043 42.9298 52.6124C39.7582 56.8378 34.1963 58.5962 28.9206 57.0412C27.1726 56.5259 25.7124 55.7193 24.2992 54.4883C21.9486 52.4409 20.8934 50.526 20.3916 47.3971C20.1791 46.0723 20.118 43.3217 20.2954 43.0743C20.3612 42.9823 20.4904 43.1517 20.6411 43.5277C20.97 44.3486 22.0503 45.7261 22.7889 46.2664C23.1246 46.5119 23.7099 46.8525 24.0898 47.0232L24.7805 47.3334L24.4098 46.9026C23.8362 46.2361 23.116 44.8832 22.7687 43.82C22.3287 42.4732 22.3315 39.5621 22.7742 38.1215C23.7081 35.0822 26.6189 31.3436 31.231 27.2598L33.7079 25.0667L33.8051 26.4069C33.8586 27.1441 34.0049 28.1036 34.1304 28.5391Z" fill="url(#paint1_linear_778_591)" fill-opacity="0.15"/>
<path d="M39.4918 51.9697C39.2893 54.8413 37.4939 56.2843 35.8931 57.0036C34.5329 57.5453 32.8016 58.0043 29.7466 57.0341C28.6769 56.5344 27.5815 55.6788 26.7962 54.2219C26.3854 53.4614 25.2279 50.6535 28.2151 46.9974C31.5097 43.0561 31.9641 39.8304 31.8692 38.6792C31.8549 38.5059 31.713 38.3253 31.8692 38.4319C32.3008 38.7263 32.677 39.0714 32.9985 39.4408C34.2348 40.8613 34.7956 42.6093 34.7956 44.3073C34.7956 45.3273 34.7654 47.1483 34.9718 47.6325C35.5734 47.4487 35.8931 45.9415 35.8931 44.3073C36.4054 44.701 38.1742 46.3489 38.8944 48.3137C39.4545 49.8638 39.5665 51.0923 39.4918 51.9697Z" fill="#FFF7DA"/>
<defs>
<filter id="filter0_d_778_591" x="0" y="7.46667" width="64.5332" height="64.5333" filterUnits="userSpaceOnUse" color-interpolation-filters="sRGB">
<feFlood flood-opacity="0" result="BackgroundImageFix"/>
<feColorMatrix in="SourceAlpha" type="matrix" values="0 0 0 0 0 0 0 0 0 0 0 0 0 0 0 0 0 0 127 0" result="hardAlpha"/>
<feOffset dy="4"/>
<feGaussianBlur stdDeviation="2"/>
<feComposite in2="hardAlpha" operator="out"/>
<feColorMatrix type="matrix" values="0 0 0 0 0 0 0 0 0 0 0 0 0 0 0 0 0 0 0.25 0"/>
<feBlend mode="normal" in2="BackgroundImageFix" result="effect1_dropShadow_778_591"/>
<feBlend mode="normal" in="SourceGraphic" in2="effect1_dropShadow_778_591" result="shape"/>
</filter>
<linearGradient id="paint0_linear_778_591" x1="32.2671" y1="0" x2="32.2671" y2="58.1333" gradientUnits="userSpaceOnUse">
<stop stop-opacity="0"/>
<stop offset="1"/>
</linearGradient>
<linearGradient id="paint1_linear_778_591" x1="32.5688" y1="25.0667" x2="32.5688" y2="57.6" gradientUnits="userSpaceOnUse">
<stop stop-opacity="0"/>
<stop offset="1"/>
</linearGradient>
</defs>
</svg>
