<svg width="9" height="9" viewBox="0 0 9 9" fill="none" xmlns="http://www.w3.org/2000/svg">
<path d="M8.47022 4.72289C8.47022 4.2092 8.37879 3.71668 8.21113 3.26103C8.09653 4.60356 7.3808 5.29314 6.63293 4.97202C5.93239 4.67107 6.40448 3.49795 6.43936 2.93817C6.49815 1.98926 6.43637 0.903074 4.71268 0C5.42891 1.37018 4.79564 2.22144 4.13147 2.27326C3.39456 2.3308 2.71969 1.63998 2.96881 0.518925C2.16215 1.11334 2.13873 2.11382 2.3876 2.76104C2.64719 3.43567 2.37714 3.9962 1.74412 4.05848C1.03661 4.12823 0.643487 3.30089 1.00596 1.98253C0.378669 2.72118 0 3.67782 0 4.72289C0 7.06192 1.89608 8.958 4.23511 8.958C6.57413 8.958 8.47022 7.06192 8.47022 4.72289Z" fill="#F4900C"/>
<path d="M6.82449 5.96827C6.86136 6.73656 6.18648 7.03775 5.82326 6.89227C5.2986 6.68225 5.43936 6.32152 5.30433 5.57415C5.16931 4.82678 4.65038 4.30785 3.88233 4.07941C4.44286 5.65711 3.57168 6.23856 3.11503 6.34245C2.64867 6.44858 2.18007 6.3422 2.12651 5.34421C1.58242 5.8858 1.24561 6.63517 1.24561 7.46326C1.24561 7.55494 1.25134 7.64512 1.25931 7.7348C2.02412 8.49065 3.07467 8.958 4.23509 8.958C5.39551 8.958 6.44607 8.49065 7.21088 7.7348C7.21885 7.64512 7.22458 7.55494 7.22458 7.46326C7.22458 6.91842 7.07909 6.40797 6.82449 5.96827Z" fill="#FFCC4D"/>
</svg>
