<svg width="24" height="24" viewBox="0 0 24 24" fill="none" xmlns="http://www.w3.org/2000/svg">
<path fill-rule="evenodd" clip-rule="evenodd" d="M15.7484 23.403C20.5401 21.8288 24 17.3184 24 12C24 5.37258 18.6274 0 12 0C5.37258 0 0 5.37258 0 12C0 16.0448 2.00118 19.6222 5.06746 21.7961C6.03126 22.4684 7.09775 23.0063 8.23906 23.3823C8.85057 23.4929 9.07342 23.1195 9.07342 22.7987C9.07342 22.666 9.07116 22.4315 9.06815 22.1176L9.06814 22.1174L9.06814 22.1171C9.06465 21.7535 9.06013 21.2835 9.05691 20.7422C5.65719 21.4727 4.93988 19.1207 4.93988 19.1207C4.38389 17.7242 3.58254 17.3522 3.58254 17.3522C2.47281 16.6016 3.66658 16.6165 3.66658 16.6165C4.89336 16.7026 5.53864 17.863 5.53864 17.863C6.62886 19.7109 8.39963 19.1771 9.09593 18.8683C9.20697 18.0865 9.52211 17.5534 9.87176 17.2512C7.15784 16.9461 4.30436 15.9082 4.30436 11.2739C4.30436 9.95382 4.78081 8.87431 5.56265 8.02868C5.4366 7.72279 5.01716 6.49331 5.68195 4.82803C5.68195 4.82803 6.7084 4.50284 9.0434 6.0679C10.0181 5.79988 11.064 5.6655 12.1032 5.66104C13.1409 5.6655 14.1869 5.79988 15.163 6.0679C17.4966 4.50284 18.5208 4.82803 18.5208 4.82803C19.1878 6.49331 18.7684 7.72279 18.6423 8.02868C19.4256 8.87431 19.8991 9.95382 19.8991 11.2739C19.8991 15.92 17.0411 16.9424 14.3182 17.2416C14.7571 17.615 15.148 18.353 15.148 19.4815C15.148 20.5625 15.1413 21.5039 15.1369 22.1276L15.1369 22.129C15.1347 22.4372 15.133 22.6676 15.133 22.7987C15.133 23.0797 15.2987 23.4005 15.7484 23.403ZM12.0525 23.9999C9.47947 23.9896 7.09403 23.1927 5.12909 21.8395C7.0754 23.2011 9.44441 24 12 24C12.0175 24 12.035 24 12.0525 23.9999Z" fill="white"/>
</svg>
