<svg width="24" height="24" viewBox="0 0 24 24" fill="none" xmlns="http://www.w3.org/2000/svg">
<circle cx="12" cy="12" r="12" fill="white"/>
<path d="M10.0526 18.7C10.3859 18.6467 10.6192 18.5467 10.7526 18.4C10.8859 18.24 10.9526 17.9733 10.9526 17.6V11.56C10.9526 11.16 10.8659 10.8733 10.6926 10.7C10.5326 10.5133 10.2192 10.3933 9.75258 10.34V10.12L13.0926 9.28H13.2326V17.6C13.2326 17.9733 13.2926 18.24 13.4126 18.4C13.5459 18.5467 13.7792 18.6467 14.1126 18.7L14.4126 18.74V19H9.75258V18.74L10.0526 18.7ZM12.0326 8.18C11.6859 8.18 11.3859 8.06 11.1326 7.82C10.8926 7.58 10.7726 7.29333 10.7726 6.96C10.7726 6.62667 10.8926 6.34 11.1326 6.1C11.3859 5.84667 11.6859 5.72 12.0326 5.72C12.3792 5.72 12.6726 5.84667 12.9126 6.1C13.1659 6.34 13.2926 6.62667 13.2926 6.96C13.2926 7.29333 13.1659 7.58 12.9126 7.82C12.6726 8.06 12.3792 8.18 12.0326 8.18Z" fill="#292929"/>
</svg>
