<svg width="24" height="24" viewBox="0 0 24 24" fill="none" xmlns="http://www.w3.org/2000/svg">
<path d="M12 2.16216C15.2041 2.16216 15.5837 2.17441 16.849 2.23214C18.019 2.28549 18.6544 2.48098 19.0773 2.64531C19.6374 2.863 20.0371 3.12304 20.457 3.54293C20.877 3.96287 21.137 4.36261 21.3547 4.92274C21.519 5.34559 21.7145 5.98097 21.7679 7.15096C21.8256 8.41631 21.8379 8.79585 21.8379 11.9999C21.8379 15.2041 21.8256 15.5836 21.7679 16.849C21.7145 18.019 21.519 18.6544 21.3547 19.0772C21.137 19.6373 20.877 20.0371 20.4571 20.457C20.0371 20.8769 19.6374 21.1369 19.0773 21.3546C18.6544 21.519 18.019 21.7145 16.849 21.7678C15.5839 21.8255 15.2044 21.8378 12 21.8378C8.79565 21.8378 8.41619 21.8255 7.15099 21.7678C5.981 21.7145 5.34561 21.519 4.92276 21.3546C4.36263 21.1369 3.96288 20.8769 3.54299 20.457C3.1231 20.0371 2.86301 19.6373 2.64533 19.0772C2.48099 18.6544 2.2855 18.019 2.23215 16.849C2.17442 15.5836 2.16217 15.2041 2.16217 11.9999C2.16217 8.79585 2.17442 8.41631 2.23215 7.15096C2.2855 5.98097 2.48099 5.34559 2.64533 4.92274C2.86301 4.36261 3.12305 3.96287 3.54299 3.54298C3.96288 3.12304 4.36263 2.863 4.92276 2.64531C5.34561 2.48098 5.981 2.28549 7.15099 2.23214C8.41634 2.17441 8.79589 2.16216 12 2.16216ZM12 1.33514e-05C8.74101 1.33514e-05 8.33236 0.0138272 7.05243 0.0722264C5.77517 0.130483 4.90285 0.333355 4.13956 0.629972C3.35045 0.936639 2.68124 1.34696 2.01408 2.01407C1.34696 2.68123 0.936644 3.35044 0.630023 4.13954C0.333358 4.90283 0.130485 5.77515 0.0722285 7.0524C0.0138291 8.33233 1.52588e-05 8.74098 1.52588e-05 11.9999C1.52588e-05 15.259 0.0138291 15.6676 0.0722285 16.9475C0.130485 18.2248 0.333358 19.0971 0.630023 19.8604C0.936644 20.6495 1.34696 21.3187 2.01408 21.9859C2.68124 22.653 3.35045 23.0633 4.13956 23.3699C4.90285 23.6666 5.77517 23.8695 7.05243 23.9277C8.33236 23.9861 8.74101 23.9999 12 23.9999C15.259 23.9999 15.6677 23.9861 16.9476 23.9277C18.2249 23.8695 19.0972 23.6666 19.8605 23.3699C20.6496 23.0633 21.3188 22.653 21.9859 21.9859C22.6531 21.3187 23.0634 20.6495 23.3701 19.8604C23.6667 19.0971 23.8695 18.2248 23.9278 16.9475C23.9862 15.6676 24 15.259 24 11.9999C24 8.74098 23.9862 8.33233 23.9278 7.0524C23.8695 5.77515 23.6667 4.90283 23.3701 4.13954C23.0634 3.35044 22.6531 2.68123 21.9859 2.01407C21.3188 1.34696 20.6496 0.936639 19.8605 0.629972C19.0972 0.333355 18.2249 0.130483 16.9476 0.0722264C15.6677 0.0138272 15.259 1.33514e-05 12 1.33514e-05Z" fill="white"/>
<path d="M12.0056 5.84342C8.60228 5.84342 5.84341 8.60228 5.84341 12.0055C5.84341 15.4088 8.60228 18.1677 12.0056 18.1677C15.4089 18.1677 18.1677 15.4088 18.1677 12.0055C18.1677 8.60228 15.4089 5.84342 12.0056 5.84342ZM12.0056 16.0055C9.79642 16.0055 8.00557 14.2147 8.00557 12.0055C8.00557 9.79641 9.79642 8.00557 12.0056 8.00557C14.2147 8.00557 16.0056 9.79641 16.0056 12.0055C16.0056 14.2147 14.2147 16.0055 12.0056 16.0055Z" fill="white"/>
<path d="M19.8508 5.59616C19.8508 6.39141 19.2061 7.03613 18.4108 7.03613C17.6155 7.03613 16.9708 6.39141 16.9708 5.59616C16.9708 4.80086 17.6155 4.15613 18.4108 4.15613C19.2061 4.15613 19.8508 4.80086 19.8508 5.59616Z" fill="white"/>
</svg>
