<svg width="48" height="48" viewBox="0 0 48 48" fill="none" xmlns="http://www.w3.org/2000/svg">
<rect width="48" height="48" rx="10" fill="#FFF7DA"/>
<path d="M21.015 23.2554L20.5811 25.7853C20.531 26.0761 20.651 26.3695 20.8896 26.5432C21.1281 26.7169 21.4449 26.7399 21.7058 26.6026L23.978 25.4073L26.2499 26.6023C26.3634 26.6628 26.487 26.692 26.6106 26.692C26.7713 26.692 26.931 26.6416 27.0661 26.5439C27.3047 26.3702 27.424 26.0768 27.3746 25.786L26.9407 23.2561L28.7794 21.4643C28.9906 21.2585 29.0666 20.9504 28.9758 20.6697C28.8843 20.3893 28.6421 20.1846 28.3502 20.1421L25.8088 19.7727L24.6736 17.4706C24.5427 17.2061 24.2735 17.0389 23.978 17.0389C23.6829 17.0389 23.414 17.2061 23.2832 17.4706L22.1473 19.7727L19.6067 20.1421C19.3148 20.1846 19.0726 20.3889 18.9811 20.6697C18.8903 20.9501 18.9659 21.2582 19.1775 21.4643L21.015 23.2554Z" fill="#57FAAC"/>
<path d="M21.015 23.2554L20.5811 25.7853C20.531 26.0761 20.651 26.3695 20.8896 26.5432C21.1281 26.7169 21.4449 26.7399 21.7058 26.6026L23.978 25.4073L26.2499 26.6023C26.3634 26.6628 26.487 26.692 26.6106 26.692C26.7713 26.692 26.931 26.6416 27.0661 26.5439C27.3047 26.3702 27.424 26.0768 27.3746 25.786L26.9407 23.2561L28.7794 21.4643C28.9906 21.2585 29.0666 20.9504 28.9758 20.6697C28.8843 20.3893 28.6421 20.1846 28.3502 20.1421L25.8088 19.7727L24.6736 17.4706C24.5427 17.2061 24.2735 17.0389 23.978 17.0389C23.6829 17.0389 23.414 17.2061 23.2832 17.4706L22.1473 19.7727L19.6067 20.1421C19.3148 20.1846 19.0726 20.3889 18.9811 20.6697C18.8903 20.9501 18.9659 21.2582 19.1775 21.4643L21.015 23.2554Z" fill="url(#paint0_linear_1412_3497)" fill-opacity="0.2"/>
<path d="M32.8879 11H15.0739H15.0725H15.071C14.6429 11 14.2962 11.3467 14.2962 11.7748V35.5273C14.2962 35.7929 14.4321 36.0394 14.6559 36.1818C14.8797 36.3245 15.1615 36.3418 15.4008 36.2286L23.9782 32.1916L32.5556 36.2286C32.6605 36.2784 32.7733 36.3025 32.8857 36.3025C33.0302 36.3025 33.1751 36.2621 33.3013 36.1821C33.5254 36.0401 33.6609 35.7929 33.6609 35.5277L33.6602 11.8047C33.6605 11.7942 33.6634 11.7852 33.6634 11.7748C33.6627 11.347 33.3156 11 32.8879 11ZM31.1098 32.306L24.3076 29.6337C24.099 29.536 23.8564 29.536 23.6478 29.6337L16.8456 32.306L16.8452 13.5499H31.1092L31.1098 32.306Z" fill="#AD95F0"/>
<path d="M32.8879 11H15.0739H15.0725H15.071C14.6429 11 14.2962 11.3467 14.2962 11.7748V35.5273C14.2962 35.7929 14.4321 36.0394 14.6559 36.1818C14.8797 36.3245 15.1615 36.3418 15.4008 36.2286L23.9782 32.1916L32.5556 36.2286C32.6605 36.2784 32.7733 36.3025 32.8857 36.3025C33.0302 36.3025 33.1751 36.2621 33.3013 36.1821C33.5254 36.0401 33.6609 35.7929 33.6609 35.5277L33.6602 11.8047C33.6605 11.7942 33.6634 11.7852 33.6634 11.7748C33.6627 11.347 33.3156 11 32.8879 11ZM31.1098 32.306L24.3076 29.6337C24.099 29.536 23.8564 29.536 23.6478 29.6337L16.8456 32.306L16.8452 13.5499H31.1092L31.1098 32.306Z" fill="url(#paint1_linear_1412_3497)" fill-opacity="0.2"/>
<defs>
<linearGradient id="paint0_linear_1412_3497" x1="23.9784" y1="17.0389" x2="23.9784" y2="26.692" gradientUnits="userSpaceOnUse">
<stop/>
<stop offset="1" stop-opacity="0"/>
</linearGradient>
<linearGradient id="paint1_linear_1412_3497" x1="23.9798" y1="11" x2="23.9798" y2="36.3027" gradientUnits="userSpaceOnUse">
<stop/>
<stop offset="1" stop-opacity="0"/>
</linearGradient>
</defs>
</svg>
