<svg width="95" height="14" viewBox="0 0 95 14" fill="none" xmlns="http://www.w3.org/2000/svg">
<path fill-rule="evenodd" clip-rule="evenodd" d="M52.0385 1.45338C52.0385 2.24571 51.4352 2.88692 50.4917 2.88692C49.585 2.88692 48.9818 2.24571 49.0004 1.45338C48.9818 0.622543 49.585 0 50.5098 0C51.4352 0 52.0204 0.622543 52.0385 1.45338ZM49.0763 13.2485V4.0194H51.9445V13.2479H49.0763V13.2485Z" fill="#292929"/>
<path fill-rule="evenodd" clip-rule="evenodd" d="M54.2435 6.96474C54.2435 5.81358 54.2056 4.83221 54.1677 4.02063H56.659L56.7914 5.28498H56.848C57.2255 4.69977 58.169 3.81351 59.6976 3.81351C61.5845 3.81351 63 5.05918 63 7.77573V13.2497H60.1317V8.13514C60.1317 6.94548 59.7169 6.13448 58.6789 6.13448C57.886 6.13448 57.4146 6.68176 57.2261 7.20979C57.1503 7.39882 57.1129 7.66254 57.1129 7.92743V13.2497H54.2447V6.96474H54.2435Z" fill="#292929"/>
<path fill-rule="evenodd" clip-rule="evenodd" d="M79.1277 1.9026C79.3761 2.16399 79.5551 2.48931 79.6469 2.84615C80.1754 5.08421 80.0533 8.61889 79.6572 10.9433C79.5654 11.3002 79.3864 11.6255 79.1379 11.8869C78.8895 12.1483 78.5803 12.3366 78.2411 12.4332C76.9995 12.7895 72.0022 12.7895 72.0022 12.7895C72.0022 12.7895 67.0049 12.7895 65.7632 12.4332C65.4241 12.3366 65.1149 12.1483 64.8664 11.8869C64.618 11.6255 64.4389 11.3002 64.3472 10.9433C63.8156 8.71498 63.9613 5.17814 64.3369 2.85695C64.4287 2.50011 64.6077 2.17479 64.8562 1.91339C65.1046 1.65199 65.4138 1.46363 65.753 1.36707C66.9946 1.01079 71.9919 1 71.9919 1C71.9919 1 76.9892 1 78.2308 1.35627C78.57 1.45284 78.8792 1.6412 79.1277 1.9026ZM74.547 6.89473L70.4014 9.42104V4.36842L74.547 6.89473Z" fill="#292929"/>
<path d="M13.5447 1.97728C12.5249 1.52495 11.4313 1.19168 10.2879 1.0008C10.2671 0.997118 10.2463 1.00632 10.2356 1.02474C10.0949 1.26656 9.93917 1.58203 9.83006 1.82998C8.60027 1.65199 7.37678 1.65199 6.17221 1.82998C6.06311 1.5765 5.90165 1.26656 5.76039 1.02474C5.74966 1.00694 5.72885 0.997731 5.70804 1.0008C4.56528 1.19106 3.47171 1.52433 2.45129 1.97728C2.44246 1.98096 2.43489 1.9871 2.42985 1.99508C0.355595 4.99081 -0.212633 7.91289 0.0661201 10.7988C0.0673814 10.8129 0.07558 10.8264 0.086932 10.835C1.45547 11.8065 2.78113 12.3964 4.08219 12.7873C4.103 12.7935 4.12507 12.7861 4.13832 12.7695C4.44608 12.3632 4.72042 11.9348 4.95566 11.4843C4.96953 11.4579 4.95629 11.4266 4.92791 11.4162C4.49275 11.2566 4.0784 11.0621 3.67983 10.8411C3.64829 10.8233 3.64577 10.7797 3.67478 10.7589C3.75866 10.6981 3.84254 10.6349 3.92263 10.5711C3.93714 10.5594 3.95732 10.5569 3.97435 10.5643C6.59286 11.72 9.4277 11.72 12.0153 10.5643C12.0323 10.5563 12.0525 10.5588 12.0677 10.5704C12.1478 10.6343 12.2316 10.6981 12.3161 10.7589C12.3451 10.7797 12.3433 10.8233 12.3117 10.8411C11.9131 11.0664 11.4988 11.2566 11.063 11.4156C11.0346 11.426 11.022 11.4579 11.0359 11.4843C11.2762 11.9342 11.5505 12.3626 11.8526 12.7689C11.8652 12.7861 11.8879 12.7935 11.9087 12.7873C13.2161 12.3964 14.5418 11.8065 15.9103 10.835C15.9223 10.8264 15.9298 10.8135 15.9311 10.7994C16.2647 7.46301 15.3723 4.56487 13.5655 1.9957C13.5611 1.9871 13.5535 1.98096 13.5447 1.97728ZM5.34667 9.04159C4.55834 9.04159 3.90876 8.34191 3.90876 7.48265C3.90876 6.6234 4.54573 5.92372 5.34667 5.92372C6.15392 5.92372 6.7972 6.62954 6.78458 7.48265C6.78458 8.34191 6.14761 9.04159 5.34667 9.04159ZM10.6632 9.04159C9.87484 9.04159 9.22525 8.34191 9.22525 7.48265C9.22525 6.6234 9.86222 5.92372 10.6632 5.92372C11.4704 5.92372 12.1137 6.62954 12.1011 7.48265C12.1011 8.34191 11.4704 9.04159 10.6632 9.04159Z" fill="#292929"/>
<path fill-rule="evenodd" clip-rule="evenodd" d="M31 2.34671C30.4853 2.57536 29.9314 2.72935 29.3504 2.79888C29.9435 2.4433 30.399 1.88054 30.6132 1.20998C30.0588 1.53943 29.4433 1.77788 28.7895 1.90714C28.2655 1.34904 27.5184 1 26.693 1C25.1069 1 23.8208 2.28605 23.8208 3.87214C23.8208 4.09706 23.8465 4.31638 23.8955 4.52683C21.5082 4.40737 19.392 3.26365 17.9753 1.5259C17.728 1.95007 17.5866 2.44331 17.5866 2.96967C17.5866 3.96594 18.0929 4.84508 18.8642 5.36025C18.3929 5.34531 17.9505 5.21605 17.5628 5.00094V5.03686C17.5628 6.42884 18.5534 7.58936 19.8665 7.85394C19.6258 7.91927 19.3719 7.95474 19.1101 7.95474C18.9249 7.95474 18.7447 7.93654 18.5693 7.90294C18.9347 9.04386 19.9958 9.87448 21.2524 9.89781C20.2697 10.6678 19.0313 11.1274 17.6855 11.1274C17.4531 11.1274 17.2245 11.1139 17 11.0868C18.2711 11.9015 19.7807 12.3775 21.4027 12.3775C26.6855 12.3775 29.5744 8.00093 29.5744 4.20578C29.5744 4.08119 29.5721 3.95707 29.566 3.83435C30.1279 3.42837 30.615 2.92254 31 2.34671Z" fill="#292929"/>
<path d="M40 1.26125C41.8691 1.26125 42.0905 1.2684 42.8286 1.30207C43.5111 1.33319 43.8817 1.44723 44.1284 1.54309C44.4551 1.67008 44.6883 1.82176 44.9333 2.0667C45.1782 2.31167 45.3299 2.54485 45.4569 2.87159C45.5528 3.11825 45.6668 3.48889 45.6979 4.17138C45.7316 4.9095 45.7387 5.13091 45.7387 6.99996C45.7387 8.86904 45.7316 9.09045 45.6979 9.82857C45.6668 10.5111 45.5528 10.8817 45.4569 11.1284C45.3299 11.4551 45.1782 11.6883 44.9333 11.9332C44.6883 12.1782 44.4551 12.3299 44.1284 12.4569C43.8817 12.5527 43.5111 12.6668 42.8286 12.6979C42.0906 12.7316 41.8692 12.7387 40 12.7387C38.1308 12.7387 37.9094 12.7316 37.1714 12.6979C36.4889 12.6668 36.1183 12.5527 35.8716 12.4569C35.5449 12.3299 35.3117 12.1782 35.0667 11.9332C34.8218 11.6883 34.6701 11.4551 34.5431 11.1284C34.4472 10.8817 34.3332 10.5111 34.3021 9.82857C34.2684 9.09045 34.2613 8.86904 34.2613 6.99996C34.2613 5.13091 34.2684 4.9095 34.3021 4.17138C34.3332 3.48889 34.4472 3.11825 34.5431 2.87159C34.6701 2.54485 34.8218 2.31167 35.0667 2.06673C35.3117 1.82176 35.5449 1.67008 35.8716 1.54309C36.1183 1.44723 36.4889 1.33319 37.1714 1.30207C37.9095 1.2684 38.1309 1.26125 40 1.26125ZM40 0C38.0989 0 37.8605 0.00805807 37.1139 0.0421242C36.3688 0.0761071 35.86 0.19445 35.4147 0.367476C34.9544 0.546365 34.564 0.785717 34.1749 1.17487C33.7857 1.56404 33.5464 1.95442 33.3675 2.41473C33.1945 2.85998 33.0761 3.36883 33.0421 4.11389C33.0081 4.86052 33 5.0989 33 6.99996C33 8.90105 33.0081 9.13943 33.0421 9.88606C33.0761 10.6311 33.1945 11.14 33.3675 11.5852C33.5464 12.0455 33.7857 12.4359 34.1749 12.8251C34.564 13.2142 34.9544 13.4536 35.4147 13.6324C35.86 13.8055 36.3688 13.9238 37.1139 13.9578C37.8605 13.9919 38.0989 14 40 14C41.9011 14 42.1395 13.9919 42.8861 13.9578C43.6312 13.9238 44.14 13.8055 44.5853 13.6324C45.0456 13.4536 45.4359 13.2142 45.8251 12.8251C46.2143 12.4359 46.4536 12.0455 46.6325 11.5852C46.8055 11.14 46.9239 10.6311 46.9579 9.88606C46.9919 9.13943 47 8.90105 47 6.99996C47 5.0989 46.9919 4.86052 46.9579 4.11389C46.9239 3.36883 46.8055 2.85998 46.6325 2.41473C46.4536 1.95442 46.2143 1.56404 45.8251 1.17487C45.4359 0.785717 45.0456 0.546365 44.5853 0.367476C44.14 0.19445 43.6312 0.0761071 42.8861 0.0421242C42.1395 0.00805807 41.9011 0 40 0Z" fill="#292929"/>
<path d="M40.003 3.40861C38.0178 3.40861 36.4084 5.01794 36.4084 7.00317C36.4084 8.98843 38.0178 10.5978 40.003 10.5978C41.9883 10.5978 43.5976 8.98843 43.5976 7.00317C43.5976 5.01794 41.9883 3.40861 40.003 3.40861ZM40.003 9.33651C38.7143 9.33651 37.6697 8.29185 37.6697 7.00317C37.6697 5.71452 38.7143 4.66986 40.003 4.66986C41.2917 4.66986 42.3363 5.71452 42.3363 7.00317C42.3363 8.29185 41.2917 9.33651 40.003 9.33651Z" fill="#292929"/>
<path d="M44.5796 3.2644C44.5796 3.72829 44.2036 4.10439 43.7396 4.10439C43.2757 4.10439 42.8996 3.72829 42.8996 3.2644C42.8996 2.80048 43.2757 2.42439 43.7396 2.42439C44.2036 2.42439 44.5796 2.80048 44.5796 3.2644Z" fill="#292929"/>
<path fill-rule="evenodd" clip-rule="evenodd" d="M90.1865 13.6517C92.9817 12.7335 95 10.1024 95 7C95 3.13401 91.866 0 88 0C84.134 0 81 3.13401 81 7C81 9.35911 82.167 11.4457 83.9552 12.7138C84.5177 13.1063 85.1401 13.4203 85.8061 13.6397C86.1629 13.7042 86.2929 13.4864 86.2929 13.2993C86.2929 13.2219 86.2915 13.0852 86.2898 12.9024L86.2898 12.9018C86.2877 12.6897 86.2851 12.4155 86.2832 12.0996C84.3001 12.5258 83.8816 11.1538 83.8816 11.1538C83.5573 10.3391 83.0898 10.1221 83.0898 10.1221C82.4425 9.68428 83.1389 9.69294 83.1389 9.69294C83.8545 9.74318 84.2309 10.4201 84.2309 10.4201C84.8669 11.4981 85.8998 11.1867 86.306 11.0065C86.3708 10.5505 86.5546 10.2395 86.7586 10.0632C85.1754 9.88523 83.5109 9.27978 83.5109 6.57644C83.5109 5.8064 83.7888 5.17669 84.2449 4.6834C84.1714 4.50497 83.9267 3.78778 84.3145 2.81636C84.3145 2.81636 84.9133 2.62667 86.2753 3.53962C86.8439 3.38327 87.454 3.30488 88.0602 3.30228C88.6656 3.30488 89.2757 3.38327 89.8451 3.53962C91.2063 2.62667 91.8038 2.81636 91.8038 2.81636C92.1929 3.78778 91.9482 4.50497 91.8747 4.6834C92.3316 5.17669 92.6078 5.8064 92.6078 6.57644C92.6078 9.28671 90.9407 9.88307 89.3523 10.0576C89.6083 10.2754 89.8364 10.7059 89.8364 11.3642C89.8364 11.9948 89.8325 12.544 89.8299 12.9078C89.8286 13.088 89.8276 13.2227 89.8276 13.2993C89.8276 13.4632 89.9243 13.6503 90.1865 13.6517ZM88.0286 13.9999C86.5281 13.9935 85.137 13.5285 83.9911 12.7391C85.1266 13.5338 86.5089 14 88 14C88.0096 14 88.0191 14 88.0286 13.9999Z" fill="#292929"/>
</svg>
