<svg width="48" height="48" viewBox="0 0 48 48" fill="none" xmlns="http://www.w3.org/2000/svg">
<rect width="48" height="48" fill="white"/>
<rect width="48" height="48" rx="10" fill="#FFF7DA"/>
<circle cx="23.95" cy="25.8991" r="14.95" fill="#FFF7DA"/>
<g opacity="0.9">
<path fill-rule="evenodd" clip-rule="evenodd" d="M25.6121 8.10826C24.1334 8.86655 22.9072 9.76867 21.6652 11.0119C19.5576 13.1216 18.6911 14.9599 18.5131 17.6997C18.457 18.562 18.6308 20.3318 18.8474 21.1056C18.8672 21.1762 18.7606 21.0461 18.6106 20.8164C18.4605 20.5866 17.9837 20.0517 17.5511 19.6275C16.873 18.9627 16.7442 18.8032 16.6177 18.4708C16.4491 18.0277 16.3799 17.2018 16.4764 16.7839C16.5111 16.6337 16.5209 16.5122 16.4981 16.5138C16.3798 16.5226 15.3492 17.9505 14.7913 18.8789C13.354 21.2709 12.5642 23.6309 12.4001 26.0243C12.2624 28.0324 13.0681 30.7216 14.4016 32.7049C16.3635 35.6231 19.5795 37.4604 23.1752 37.717C25.8727 37.9096 28.5932 37.1447 30.7841 35.5779C33.4705 33.6565 35.1367 30.7621 35.4714 27.4354C35.7039 25.1239 35 22.2521 33.5575 19.6275C32.8337 18.3105 31.3159 16.2098 30.6092 15.5469L30.3695 15.322L30.4075 15.6433C30.7054 18.1589 30.5636 19.6907 29.8999 21.1254C29.7772 21.3908 29.6609 21.5921 29.6416 21.5728C29.6223 21.5535 29.6407 21.2236 29.6825 20.8396C29.7814 19.9319 29.7244 18.6872 29.5538 18.0314C29.3215 17.1383 28.8373 16.2966 27.8499 15.0697C26.2657 13.1012 25.9649 12.4799 25.8991 11.0407C25.8589 10.1605 25.9826 9.28664 26.2789 8.35972C26.3844 8.0296 26.4571 7.74588 26.4404 7.72924C26.4238 7.7126 26.051 7.88315 25.6121 8.10826Z" fill="#AD95F0"/>
<path fill-rule="evenodd" clip-rule="evenodd" d="M25.6121 8.10826C24.1334 8.86655 22.9072 9.76867 21.6652 11.0119C19.5576 13.1216 18.6911 14.9599 18.5131 17.6997C18.457 18.562 18.6308 20.3318 18.8474 21.1056C18.8672 21.1762 18.7606 21.0461 18.6106 20.8164C18.4605 20.5866 17.9837 20.0517 17.5511 19.6275C16.873 18.9627 16.7442 18.8032 16.6177 18.4708C16.4491 18.0277 16.3799 17.2018 16.4764 16.7839C16.5111 16.6337 16.5209 16.5122 16.4981 16.5138C16.3798 16.5226 15.3492 17.9505 14.7913 18.8789C13.354 21.2709 12.5642 23.6309 12.4001 26.0243C12.2624 28.0324 13.0681 30.7216 14.4016 32.7049C16.3635 35.6231 19.5795 37.4604 23.1752 37.717C25.8727 37.9096 28.5932 37.1447 30.7841 35.5779C33.4705 33.6565 35.1367 30.7621 35.4714 27.4354C35.7039 25.1239 35 22.2521 33.5575 19.6275C32.8337 18.3105 31.3159 16.2098 30.6092 15.5469L30.3695 15.322L30.4075 15.6433C30.7054 18.1589 30.5636 19.6907 29.8999 21.1254C29.7772 21.3908 29.6609 21.5921 29.6416 21.5728C29.6223 21.5535 29.6407 21.2236 29.6825 20.8396C29.7814 19.9319 29.7244 18.6872 29.5538 18.0314C29.3215 17.1383 28.8373 16.2966 27.8499 15.0697C26.2657 13.1012 25.9649 12.4799 25.8991 11.0407C25.8589 10.1605 25.9826 9.28664 26.2789 8.35972C26.3844 8.0296 26.4571 7.74588 26.4404 7.72924C26.4238 7.7126 26.051 7.88315 25.6121 8.10826Z" fill="url(#paint0_linear_1412_3468)" fill-opacity="0.2"/>
</g>
<path fill-rule="evenodd" clip-rule="evenodd" d="M24.9356 22.0941C25.199 23.0084 25.6115 23.7837 26.1937 24.4588C26.3831 24.6783 26.9841 25.2809 27.5292 25.7979C29.8041 27.9551 30.6613 29.5723 30.6559 31.6959C30.6527 32.9195 30.3469 33.8171 29.5895 34.8263C27.9121 37.061 24.9704 37.9911 22.1801 37.1686C21.2556 36.8961 20.4833 36.4695 19.7359 35.8184C18.4927 34.7356 17.9346 33.7228 17.6692 32.0679C17.5569 31.3673 17.5245 29.9125 17.6184 29.7816C17.6532 29.733 17.7215 29.8226 17.8012 30.0214C17.9751 30.4556 18.5465 31.1841 18.9372 31.4699C19.1147 31.5998 19.4243 31.7799 19.6252 31.8702L19.9905 32.0342L19.7944 31.8064C19.4911 31.4539 19.1102 30.7383 18.9265 30.176C18.6938 29.4638 18.6952 27.9241 18.9294 27.1622C19.4233 25.5547 20.9628 23.5774 23.4021 21.4175L24.7121 20.2576L24.7635 20.9664C24.7918 21.3563 24.8692 21.8638 24.9356 22.0941Z" fill="#57FAAC"/>
<path fill-rule="evenodd" clip-rule="evenodd" d="M24.9356 22.0941C25.199 23.0084 25.6115 23.7837 26.1937 24.4588C26.3831 24.6783 26.9841 25.2809 27.5292 25.7979C29.8041 27.9551 30.6613 29.5723 30.6559 31.6959C30.6527 32.9195 30.3469 33.8171 29.5895 34.8263C27.9121 37.061 24.9704 37.9911 22.1801 37.1686C21.2556 36.8961 20.4833 36.4695 19.7359 35.8184C18.4927 34.7356 17.9346 33.7228 17.6692 32.0679C17.5569 31.3673 17.5245 29.9125 17.6184 29.7816C17.6532 29.733 17.7215 29.8226 17.8012 30.0214C17.9751 30.4556 18.5465 31.1841 18.9372 31.4699C19.1147 31.5998 19.4243 31.7799 19.6252 31.8702L19.9905 32.0342L19.7944 31.8064C19.4911 31.4539 19.1102 30.7383 18.9265 30.176C18.6938 29.4638 18.6952 27.9241 18.9294 27.1622C19.4233 25.5547 20.9628 23.5774 23.4021 21.4175L24.7121 20.2576L24.7635 20.9664C24.7918 21.3563 24.8692 21.8638 24.9356 22.0941Z" fill="url(#paint1_linear_1412_3468)" fill-opacity="0.15"/>
<path d="M27.7712 34.4863C27.664 36.0051 26.7145 36.7683 25.8678 37.1487C25.1484 37.4352 24.2328 37.678 22.617 37.1648C22.0512 36.9005 21.4719 36.448 21.0566 35.6775C20.8393 35.2753 20.2271 33.7902 21.807 31.8565C23.5495 29.772 23.7898 28.0659 23.7396 27.4571C23.7321 27.3654 23.657 27.2699 23.7396 27.3263C23.9679 27.482 24.1669 27.6645 24.3369 27.8599C24.9908 28.6112 25.2874 29.5357 25.2874 30.4338C25.2874 30.9732 25.2714 31.9363 25.3806 32.1924C25.6987 32.0952 25.8678 31.2981 25.8678 30.4338C26.1388 30.642 27.0743 31.5135 27.4552 32.5527C27.7514 33.3726 27.8107 34.0223 27.7712 34.4863Z" fill="#FFF7DA"/>
<g opacity="0.9">
<path d="M17.7149 11.0738C18.6999 10.1017 18.8624 9.84842 19.2895 8.61857C19.3843 8.34558 19.6939 9.1398 19.7443 9.78525C19.8222 10.7825 19.5038 11.6398 18.6428 12.7515C17.95 13.6459 17.6407 14.3728 17.5416 15.3392C17.5158 15.5901 17.4729 15.736 17.4287 15.7225C17.3064 15.685 16.8284 14.927 16.6814 14.5372C16.4019 13.7959 16.4158 12.8437 16.7152 12.2305C16.8251 12.0054 17.1391 11.642 17.7149 11.0738Z" fill="#AD95F0"/>
<path d="M17.7149 11.0738C18.6999 10.1017 18.8624 9.84842 19.2895 8.61857C19.3843 8.34558 19.6939 9.1398 19.7443 9.78525C19.8222 10.7825 19.5038 11.6398 18.6428 12.7515C17.95 13.6459 17.6407 14.3728 17.5416 15.3392C17.5158 15.5901 17.4729 15.736 17.4287 15.7225C17.3064 15.685 16.8284 14.927 16.6814 14.5372C16.4019 13.7959 16.4158 12.8437 16.7152 12.2305C16.8251 12.0054 17.1391 11.642 17.7149 11.0738Z" fill="url(#paint2_linear_1412_3468)" fill-opacity="0.2"/>
</g>
<g opacity="0.9">
<path d="M27.2685 10.6308C26.9643 9.37577 27.2437 8.34051 28.1312 7.43448C28.3653 7.19555 28.5876 7 28.6253 7C28.6642 7 28.7117 7.21117 28.7351 7.48736C28.7844 8.06952 28.885 8.4815 29.2603 9.637C29.5886 10.648 29.6566 11.1524 29.5548 11.8205C29.4126 12.7542 28.968 13.7719 28.5357 14.1536C28.4059 14.2682 28.4026 14.2669 28.3691 14.0893C28.3503 13.9897 28.3167 13.7636 28.2943 13.5869C28.2216 13.0134 28.0729 12.5427 27.6906 11.6752C27.4841 11.2069 27.2942 10.7368 27.2685 10.6308Z" fill="#AD95F0"/>
<path d="M27.2685 10.6308C26.9643 9.37577 27.2437 8.34051 28.1312 7.43448C28.3653 7.19555 28.5876 7 28.6253 7C28.6642 7 28.7117 7.21117 28.7351 7.48736C28.7844 8.06952 28.885 8.4815 29.2603 9.637C29.5886 10.648 29.6566 11.1524 29.5548 11.8205C29.4126 12.7542 28.968 13.7719 28.5357 14.1536C28.4059 14.2682 28.4026 14.2669 28.3691 14.0893C28.3503 13.9897 28.3167 13.7636 28.2943 13.5869C28.2216 13.0134 28.0729 12.5427 27.6906 11.6752C27.4841 11.2069 27.2942 10.7368 27.2685 10.6308Z" fill="url(#paint3_linear_1412_3468)" fill-opacity="0.2"/>
</g>
<defs>
<linearGradient id="paint0_linear_1412_3468" x1="23.95" y1="6.99999" x2="23.95" y2="37.7462" gradientUnits="userSpaceOnUse">
<stop stop-opacity="0"/>
<stop offset="1"/>
</linearGradient>
<linearGradient id="paint1_linear_1412_3468" x1="24.1096" y1="20.2576" x2="24.1096" y2="37.4642" gradientUnits="userSpaceOnUse">
<stop stop-opacity="0"/>
<stop offset="1"/>
</linearGradient>
<linearGradient id="paint2_linear_1412_3468" x1="23.95" y1="6.99999" x2="23.95" y2="37.7462" gradientUnits="userSpaceOnUse">
<stop stop-opacity="0"/>
<stop offset="1"/>
</linearGradient>
<linearGradient id="paint3_linear_1412_3468" x1="23.95" y1="7" x2="23.95" y2="37.7462" gradientUnits="userSpaceOnUse">
<stop stop-opacity="0"/>
<stop offset="1"/>
</linearGradient>
</defs>
</svg>
